@startuml references-table

' hide the spot
hide circle
' avoid problems with angled crows feet
skinparam linetype ortho

entity 注文 {
  *注文ID
  --
  *伝票ID <<FK>>
  *商品ID <<FK>>
  *注文数
  *サビ抜きステータス
}

entity 顧客 {
  *顧客ID
  --
  *名前
  *電話
}

entity 商品 {
  *商品ID
  --
  *商品名
  *金額
  *商品カテゴリID <<FK>>
}

entity 商品カテゴリ {
  *商品カテゴリID
  --
  *グループ名w
  *サブグループ名
}

entity 伝票 {
  *伝票ID
  -- 
  *顧客ID <<FK>>
  *合計皿数
  *支払ステータス
}

商品カテゴリ ||--|{ 商品
注文 ||--|| 商品
伝票 ||--|| 顧客
伝票 ||--|{ 注文

@enduml
